#define Unbenannt_width 32
#define Unbenannt_height 32
#define Unbenannt_x_hot 17
#define Unbenannt_y_hot 16
static unsigned char Unbenannt_bits[] = {
   0x00, 0x00, 0x00, 0x00, 0x00, 0x00, 0x00, 0x00, 0x00, 0x00, 0x00, 0x00,
   0x00, 0x00, 0x00, 0x00, 0x00, 0x00, 0x00, 0x00, 0x00, 0x00, 0x00, 0x00,
   0x00, 0xc0, 0x01, 0x00, 0x00, 0xf8, 0x01, 0x00, 0x00, 0x3c, 0x00, 0x00,
   0x00, 0x0e, 0x00, 0x00, 0x00, 0x07, 0x00, 0x00, 0x80, 0x03, 0x00, 0x00,
   0x80, 0x01, 0x00, 0x0c, 0x80, 0x01, 0x00, 0x1e, 0xc0, 0x00, 0x00, 0x1e,
   0xc0, 0x00, 0x00, 0x3f, 0xc0, 0x00, 0x82, 0x6d, 0xc0, 0x00, 0x80, 0x6d,
   0xc0, 0x00, 0x00, 0x0c, 0xc0, 0x00, 0x00, 0x0c, 0x80, 0x01, 0x00, 0x06,
   0x80, 0x01, 0x00, 0x06, 0x80, 0x03, 0x00, 0x07, 0x00, 0x07, 0x80, 0x03,
   0x00, 0x0e, 0xc0, 0x01, 0x00, 0x3c, 0xf0, 0x00, 0x00, 0xf8, 0x7f, 0x00,
   0x00, 0xc0, 0x0f, 0x00, 0x00, 0x00, 0x00, 0x00, 0x00, 0x00, 0x00, 0x00,
   0x00, 0x00, 0x00, 0x00, 0x00, 0x00, 0x00, 0x00 };
