#define Unbenannt_mask_width 32
#define Unbenannt_mask_height 32
#define Unbenannt_mask_x_hot 17
#define Unbenannt_mask_y_hot 16
static unsigned char Unbenannt_mask_bits[] = {
   0x00, 0x00, 0x00, 0x00, 0x00, 0x00, 0x00, 0x00, 0x00, 0x00, 0x00, 0x00,
   0x00, 0x00, 0x00, 0x00, 0x00, 0x00, 0x00, 0x00, 0x00, 0xc0, 0x01, 0x00,
   0x00, 0xf8, 0x03, 0x00, 0x00, 0xfc, 0x03, 0x00, 0x00, 0xfe, 0x01, 0x00,
   0x00, 0x3f, 0x00, 0x00, 0x80, 0x0f, 0x00, 0x00, 0xc0, 0x07, 0x00, 0x0c,
   0xc0, 0x03, 0x00, 0x1e, 0xc0, 0x03, 0x00, 0x3f, 0xe0, 0x01, 0x00, 0x3f,
   0xe0, 0x01, 0x82, 0x7f, 0xe0, 0x01, 0xc7, 0xff, 0xe0, 0x01, 0xc2, 0xff,
   0xe0, 0x01, 0x80, 0x7f, 0xe0, 0x01, 0x00, 0x1e, 0xc0, 0x03, 0x00, 0x0f,
   0xc0, 0x03, 0x00, 0x0f, 0xc0, 0x07, 0x80, 0x0f, 0x80, 0x0f, 0xc0, 0x07,
   0x00, 0x3f, 0xf0, 0x03, 0x00, 0xfe, 0xff, 0x01, 0x00, 0xfc, 0xff, 0x00,
   0x00, 0xf8, 0x7f, 0x00, 0x00, 0xc0, 0x0f, 0x00, 0x00, 0x00, 0x00, 0x00,
   0x00, 0x00, 0x00, 0x00, 0x00, 0x00, 0x00, 0x00 };
